<mxfile host="app.diagrams.net" modified="2024-05-30T19:02:02.140Z" agent="Mozilla/5.0 (Macintosh; Intel Mac OS X 10_15_7) AppleWebKit/537.36 (KHTML, like Gecko) Chrome/125.0.0.0 Safari/537.36" etag="OgcFNBalH0jvo1Dfr-zD" version="24.4.10" type="github">
  <diagram name="Seite-1" id="YZBNc-TldZjnR_e9Z0oX">
    <mxGraphModel dx="2901" dy="680" grid="1" gridSize="10" guides="1" tooltips="1" connect="1" arrows="1" fold="1" page="1" pageScale="1" pageWidth="827" pageHeight="1169" math="0" shadow="0">
      <root>
        <mxCell id="0" />
        <mxCell id="1" parent="0" />
        <mxCell id="CWszqKN_70vEU7rWPBre-1" value="dd-terraform-interactions-metallb" style="shape=umlFrame;whiteSpace=wrap;html=1;pointerEvents=0;width=210;height=30;" vertex="1" parent="1">
          <mxGeometry x="-70" y="200" width="920" height="690" as="geometry" />
        </mxCell>
        <mxCell id="CWszqKN_70vEU7rWPBre-2" value="Kubernetes :: ARTKUBE Cluster" style="verticalAlign=top;align=left;spacingTop=8;spacingLeft=2;spacingRight=12;shape=cube;size=10;direction=south;fontStyle=4;html=1;whiteSpace=wrap;" vertex="1" parent="1">
          <mxGeometry x="450" y="270" width="260" height="210" as="geometry" />
        </mxCell>
        <mxCell id="CWszqKN_70vEU7rWPBre-3" value="Master Node :: Debian" style="verticalAlign=top;align=left;spacingTop=8;spacingLeft=2;spacingRight=12;shape=cube;size=10;direction=south;fontStyle=4;html=1;whiteSpace=wrap;" vertex="1" parent="1">
          <mxGeometry x="450" y="585" width="260" height="210" as="geometry" />
        </mxCell>
        <mxCell id="CWszqKN_70vEU7rWPBre-4" value="Terraform :: cluster" style="verticalAlign=top;align=left;spacingTop=8;spacingLeft=2;spacingRight=12;shape=cube;size=10;direction=south;fontStyle=4;html=1;whiteSpace=wrap;" vertex="1" parent="1">
          <mxGeometry x="-10" y="430" width="260" height="210" as="geometry" />
        </mxCell>
        <mxCell id="CWszqKN_70vEU7rWPBre-8" value="&amp;lt;&amp;lt;deploy&amp;gt;&amp;gt;" style="rounded=0;orthogonalLoop=1;jettySize=auto;html=1;exitX=1;exitY=0.5;exitDx=0;exitDy=0;endArrow=open;endFill=0;entryX=0;entryY=0.5;entryDx=0;entryDy=0;" edge="1" parent="1" source="CWszqKN_70vEU7rWPBre-5" target="CWszqKN_70vEU7rWPBre-9">
          <mxGeometry relative="1" as="geometry" />
        </mxCell>
        <mxCell id="CWszqKN_70vEU7rWPBre-5" value="«metallb»&lt;br&gt;&lt;b&gt;main.tf&lt;/b&gt;" style="html=1;whiteSpace=wrap;" vertex="1" parent="1">
          <mxGeometry x="40" y="510" width="160" height="120" as="geometry" />
        </mxCell>
        <mxCell id="CWszqKN_70vEU7rWPBre-6" value="+ provider: kubectl" style="text;strokeColor=none;fillColor=none;align=left;verticalAlign=top;spacingLeft=4;spacingRight=4;overflow=hidden;rotatable=0;points=[[0,0.5],[1,0.5]];portConstraint=eastwest;whiteSpace=wrap;html=1;" vertex="1" parent="1">
          <mxGeometry x="120" y="440" width="140" height="30" as="geometry" />
        </mxCell>
        <mxCell id="CWszqKN_70vEU7rWPBre-7" value="+ apply: true" style="text;strokeColor=none;fillColor=none;align=left;verticalAlign=top;spacingLeft=4;spacingRight=4;overflow=hidden;rotatable=0;points=[[0,0.5],[1,0.5]];portConstraint=eastwest;whiteSpace=wrap;html=1;" vertex="1" parent="1">
          <mxGeometry x="120" y="460" width="140" height="30" as="geometry" />
        </mxCell>
        <mxCell id="CWszqKN_70vEU7rWPBre-11" value="&amp;lt;&amp;lt;deploy&amp;gt;&amp;gt;" style="rounded=0;orthogonalLoop=1;jettySize=auto;html=1;exitX=0.5;exitY=0;exitDx=0;exitDy=0;endArrow=open;endFill=0;" edge="1" parent="1" source="CWszqKN_70vEU7rWPBre-9" target="CWszqKN_70vEU7rWPBre-10">
          <mxGeometry relative="1" as="geometry" />
        </mxCell>
        <mxCell id="CWszqKN_70vEU7rWPBre-9" value="«preparation.sh»&lt;br&gt;&lt;b&gt;set StrictArp = true&lt;/b&gt;" style="html=1;whiteSpace=wrap;" vertex="1" parent="1">
          <mxGeometry x="500" y="650" width="150" height="80" as="geometry" />
        </mxCell>
        <mxCell id="CWszqKN_70vEU7rWPBre-10" value="+ StrictArp: true" style="text;strokeColor=none;fillColor=none;align=left;verticalAlign=top;spacingLeft=4;spacingRight=4;overflow=hidden;rotatable=0;points=[[0,0.5],[1,0.5]];portConstraint=eastwest;whiteSpace=wrap;html=1;" vertex="1" parent="1">
          <mxGeometry x="580" y="442" width="100" height="26" as="geometry" />
        </mxCell>
        <mxCell id="CWszqKN_70vEU7rWPBre-13" value="&amp;lt;&amp;lt;deploy&amp;gt;&amp;gt;" style="rounded=0;orthogonalLoop=1;jettySize=auto;html=1;exitX=1;exitY=0.5;exitDx=0;exitDy=0;endArrow=open;endFill=0;entryX=0;entryY=0.75;entryDx=0;entryDy=0;" edge="1" parent="1" source="CWszqKN_70vEU7rWPBre-5" target="CWszqKN_70vEU7rWPBre-14">
          <mxGeometry relative="1" as="geometry">
            <mxPoint x="210" y="580" as="sourcePoint" />
            <mxPoint x="510" y="700" as="targetPoint" />
          </mxGeometry>
        </mxCell>
        <mxCell id="CWszqKN_70vEU7rWPBre-14" value="«namespace»&lt;br&gt;&lt;b&gt;metallb&lt;/b&gt;" style="html=1;whiteSpace=wrap;" vertex="1" parent="1">
          <mxGeometry x="490" y="370" width="110" height="50" as="geometry" />
        </mxCell>
      </root>
    </mxGraphModel>
  </diagram>
</mxfile>
